<svg width="52" height="81" viewBox="0 0 52 81" fill="none" xmlns="http://www.w3.org/2000/svg">
<path d="M25.7812 0.5C14.15 0.5 4.6875 9.9625 4.6875 21.5938V38.3125L12.1875 43L18.75 38.3125V21.5938C18.75 17.7172 21.9047 14.5625 25.7812 14.5625C29.6578 14.5625 32.8125 17.7172 32.8125 21.5938V31.2812C32.8125 32.575 33.8625 33.625 35.1562 33.625H44.5312C45.825 33.625 46.875 32.575 46.875 31.2812V21.5938C46.875 9.9625 37.4125 0.5 25.7812 0.5ZM25.7812 45.3438C20.6119 45.3438 16.4062 49.5494 16.4062 54.7188C16.4062 58.0983 18.235 61.1803 21.0938 62.8352V68.7812C21.0938 71.3659 23.1966 73.4688 25.7812 73.4688C28.3659 73.4688 30.4688 71.3659 30.4688 68.7812V62.8352C33.3275 61.1803 35.1562 58.0984 35.1562 54.7188C35.1562 49.5494 30.9506 45.3438 25.7812 45.3438Z" fill="#D9D9D9"/>
<path d="M49.2188 38.3125H2.34375C1.05 38.3125 0 39.3625 0 40.6562V54.7188C0 68.9344 11.5656 80.5 25.7812 80.5C39.9969 80.5 51.5625 68.9344 51.5625 54.7188V40.6562C51.5625 39.3625 50.5125 38.3125 49.2188 38.3125ZM28.125 61.3469V68.7812C28.125 70.0756 27.0756 71.125 25.7812 71.125C24.4869 71.125 23.4375 70.0756 23.4375 68.7812V61.3469C20.7095 60.3794 18.75 57.7742 18.75 54.7188C18.75 50.8417 21.9042 47.6875 25.7812 47.6875C29.6583 47.6875 32.8125 50.8417 32.8125 54.7188C32.8125 57.7742 30.853 60.3794 28.125 61.3469Z" fill="url(#paint0_linear_46_399)"/>
<defs>
<linearGradient id="paint0_linear_46_399" x1="52" y1="80.5" x2="8.28565e-07" y2="38.5" gradientUnits="userSpaceOnUse">
<stop stop-color="#FD3232"/>
<stop offset="1" stop-color="#8C8C8C"/>
</linearGradient>
</defs>
</svg>
