<svg width="20" height="9" viewBox="0 0 20 9" fill="none" xmlns="http://www.w3.org/2000/svg">
<path d="M0.461552 4.90769H19.5385C19.7654 4.90769 19.9487 4.72435 19.9487 4.49743C19.9487 4.27051 19.7654 4.08717 19.5385 4.08717H1.45258L3.94232 1.59743C4.10258 1.43717 4.10258 1.17692 3.94232 1.01666C3.78206 0.856405 3.52181 0.856405 3.36155 1.01666L0.170527 4.20769C0.0525761 4.32564 0.0179615 4.50128 0.0820637 4.65512C0.146166 4.80769 0.296165 4.90769 0.461552 4.90769Z" fill="#8C8C8C"/>
<path d="M3.65647 8.10256C3.7616 8.10256 3.86673 8.06281 3.94621 7.98204C4.10647 7.82179 4.10647 7.56153 3.94621 7.40128L0.751349 4.2064C0.591093 4.04615 0.330838 4.04615 0.170582 4.2064C0.0103264 4.36666 0.0103264 4.62692 0.170582 4.78717L3.36545 7.98204C3.44621 8.06281 3.55134 8.10256 3.65647 8.10256Z" fill="#8C8C8C"/>
</svg>
